<svg height="29" viewBox="0 0 193 29" width="193" xmlns="http://www.w3.org/2000/svg"><g fill="#54575a" fill-rule="evenodd" transform="translate(0 -1)"><path d="m28.16 3.27v.27c.7670775.18322523 1.4398593.6424255 1.89 1.29.4666224.81684183.6887657 1.75053797.64 2.69-.0006254 1.23473967-.1894608 2.46217015-.56 3.64-.4356394 1.3747238-.9807164 2.7123362-1.63 4l-.76 1.67-3.74-9.08c-.1828759-.43255812-.3365537-.87688729-.46-1.33-.0979255-.34583646-.1582743-.70122395-.18-1.06-.01895-.45362105.1432743-.8961571.450913-1.23005766.3076387-.33390055.7354348-.53175251 1.189087-.54994234v-.27h-11.28v.27c.3838035.07019632.7547067.19832652 1.1.38.3523066.23695448.6491107.54740478.87.91.3895918.61258737.7242294 1.25843792 1 1.93l1.76 4.2-3.18 6.29-4.74-11c-.1220042-.21979383-.2224716-.45086888-.3-.69-.0404285-.17398533-.0638718-.35148444-.07-.53-.0025605-.33484653.1185023-.65886755.34-.91.2733484-.29506408.6175745-.51536878 1-.64v-.25h-11.5v.27c.93523485.28557422 1.78200797.80534146 2.46 1.51.88978184 1.02348424 1.61816603 2.17675921 2.16 3.42l7.28 16.18h.3l6.56-13 5.61 13h.3l6.67-14.4c.7067032-1.6399714 1.5992041-3.19345983 2.66-4.63.6929116-.90039681 1.5866849-1.62637358 2.61-2.12v-.26h-8.45z"/><path d="m46.5 17.83c-.72 1.85-2.31 2.76-4.82 2.76-1.3620251.071889-2.6876429-.4539759-3.63-1.44-.9621394-1.1619161-1.4512831-2.6436287-1.37-4.15h10v-.19c.0161916-1.1987589-.332573-2.3740953-1-3.37-.6832487-.962166-1.6074822-1.7277624-2.68-2.22-1.1765793-.53624995-2.4570783-.80600839-3.75-.79-1.4387869-.0186671-2.8591137.32523771-4.13 1-1.2391247.6569797-2.2761595 1.638706-3 2.84-.77189 1.2988152-1.1602038 2.7896627-1.12 4.3-.0300091 1.398728.3152965 2.7799501 1 4 .6744658 1.1665104 1.6570238 2.1248504 2.84 2.77 1.2657321.6882381 2.689632 1.0330081 4.13 1 1.8343084.0856694 3.6379828-.4930686 5.08-1.63 1.4463337-1.2362379 2.4183871-2.9364477 2.75-4.81zm-9.17-7.47c.2350008-.87276542 1.0261501-1.47944986 1.93-1.48.274504.0012165.5449628.06626357.79.19.2569604.14151277.4684872.35303963.61.61.1561795.24809064.2836639.5131239.38.79.1279777.395297.205262.8052398.23 1.22 0 .49.07 1.17.07 2v.76h-4.66c.0038021-.7855995.0538889-1.5702926.15-2.35.1113409-.6075007.2787228-1.2033803.5-1.78z" fill-rule="nonzero"/><path d="m64.35 21.88c-.0965011.0842032-.2221342.1272774-.35.12h-.34c-.3258646.0059645-.628926-.1666655-.79-.45-.229784-.5635538-.3223273-1.173654-.27-1.78v-7.25c.0891724-1.149289-.2691001-2.2885954-1-3.18-.8072255-.75335268-1.902208-1.11834685-3-1-1.2138574.02077381-2.4214956.17843768-3.6.47-1.338499.30129187-2.637278.75771034-3.87 1.36-1.0051647.4167556-1.9114449 1.0402491-2.66 1.83-.5234594.5387567-.83274 1.2497465-.87 2-.0240297.5854744.2099051 1.1520352.64 1.55.4768583.4003933 1.0882774.6041997 1.71.57.7540128-.0207929 1.4707271-.3325636 2-.87.6396258-.6693887.9696584-1.5760718.91-2.5v-.53c-.0490493-.7746141.1816056-1.5410981.65-2.16.374482-.47066283.9487877-.73743711 1.55-.72.4293902-.01963761.8536824.099585 1.21.34.3824665.30106457.6420141.7312736.73 1.21.1741361.7977991.251361 1.6136971.23 2.43v1.59c-1.55.45-3 .94-4.17 1.4-1.1795542.448194-2.3315659.9657645-3.45 1.55-1.2534806.5515033-2.081014 1.7714351-2.13 3.14-.0125443.946782.4394967 1.8396563 1.21 2.39.9101735.6333596 2.0019719.9528247 3.11.91 1.1410508.0201657 2.2710481-.2263792 3.3-.72.8572379-.4565284 1.6072534-1.0906324 2.2-1.86.069735.7208425.3920582 1.393825.91 1.9.5504684.486245 1.2659135.7438053 2 .72.8239452.011774 1.6358054-.1989642 2.35-.61.7680859-.4086396 1.4213645-1.003467 1.9-1.73zm-8.91.27c-1.17 0-1.78-.8-1.78-2.43-.0115253-.9776128.345496-1.923719 1-2.65.734307-.7260224 1.6280498-1.2704863 2.61-1.59v4.52c.0408037.5725766-.1339752 1.1397164-.49 1.59-.3115705.38867-.792849.6013279-1.29.57z" fill-rule="nonzero"/><path d="m64.35 23.55c.5352258.0057041 1.0350239-.2669131 1.32-.72.3499707-.8123948.4942285-1.6985496.42-2.58v-12.69c.0909356-1.07328226-.1203693-2.15059086-.61-3.11-.3477828-.58651126-.9886135-.93570644-1.67-.91v-.34c1.26-.31 2.58-.61 3.87-1s2.58-.71 3.71-1.12v19.78c-.053033.6844905.0637563 1.3714865.34 2 .262225.3720898.6849446.5982818 1.14.61v.34h-8.52z"/><path d="m75.6 23.47c-.7084424-.8110924-1.0519966-1.8779187-.95-2.95v-10.43h-2.31l-.07-.26c.9220749-.45512478 1.7964104-1.00116571 2.61-1.63.9419847-.74415055 1.8401505-1.54214915 2.69-2.39.8336004-.84002925 1.6055986-1.73902292 2.31-2.69l.27.08v5.57h3.48l-.75 1.29h-2.73v9.43c-.0504051.6917212.0914928 1.3839059.41 2 .2681202.3861125.7099458.6145139 1.18.61.255519-.0138363.5095988-.0472679.76-.1.2448012-.0524335.4762404-.154539.68-.3l.19.27c-.7981833.6782848-1.6625285 1.274616-2.58 1.78-.7865341.4001579-1.6575447.6059085-2.54.6-.9618083.0573933-1.9093689-.2536926-2.65-.87z"/><path d="m100.08 22.9c-.2499448-.7430083-.3518652-1.5277956-.3-2.31v-7.92c0-2.84-1.18-4.28-3.49-4.28-.6167712-.01292012-1.2315172.07490073-1.82.26-.6416937.2275388-1.2529527.53316832-1.82.91-.6.42-1.36 1-2.23 1.71v-10.12c-1.22.38-2.42.76-3.68 1.1s-2.54.68-3.94 1v.34c.6813865-.02570644 1.3222172.32348874 1.67.91.4699669.96231069.6769707 2.03183041.6 3.1v12.4c.0811003.9560843-.0734086 1.9174732-.45 2.8-.3012771.4811254-.8324084.7694538-1.4.76v.34h8.64v-.34c-.4551901-.0090996-.8724504-.2556626-1.1-.65-.2883446-.7339073-.4046553-1.524136-.34-2.31v-8.8c.3736326-.3285847.7951326-.5983447 1.25-.8.3501173-.1816352.7358944-.2840539 1.13-.3.5078722-.0114523.9836949.2473952 1.25.68.3663573.7118248.525726 1.5121326.46 2.31v6.9c.0123306.6086375-.0244554 1.217278-.11 1.82-.0346477.3184648-.1839238.6134628-.42.83-.2537769.1855616-.5560636.293273-.87.31v.34h8.07v-.34c-.458067.0012503-.880129-.2481494-1.1-.65z"/><path d="m106.94 24.12c-.72-.16-1.4-.27-2-.38-.523379-.1099838-1.055443-.1735638-1.59-.19-.241308.0070011-.481862.0303882-.72.07-.195387.0625744-.385902.1394489-.57.23v-7l.31-.08c.891583 1.4396349 1.894656 2.8071577 3 4.09.706189.8552175 1.551336 1.5854248 2.5 2.16.689026.4063039 1.470349.6300308 2.27.65.576943.052698 1.151509-.1232629 1.6-.49.336226-.3427603.513878-.8104563.49-1.29.026023-.6056675-.224073-1.1904495-.68-1.59-.746032-.5550448-1.572145-.9933908-2.45-1.3l-2.2-.87c-1.361623-.4659438-2.621097-1.1890381-3.71-2.13-.707542-.7131888-1.090824-1.6858568-1.06-2.69-.027315-.8912399.224403-1.7687587.72-2.51.51731-.7774882 1.236291-1.39968318 2.08-1.8 1.019989-.47412356 2.135521-.70681121 3.26-.68.669753-.00803573 1.338938.04215311 2 .15.64.12 1.25.19 1.74.31s.91.15 1.18.15c.176021.02135806.353979.02135806.53 0l.34-.11.42 5.68-.27.08c-.932534-1.5810016-2.080168-3.0247992-3.41-4.29-.812209-.78126346-1.87527-1.24901035-3-1.32-.549908-.03087503-1.091659.14376845-1.52.49-.400797.32302984-.626668.8155014-.61 1.33-.02716.5566414.19671 1.0961302.61 1.47.588858.4861484 1.268798.8499163 2 1.07l2.61.87c1.30482.3540214 2.511966 1.0003402 3.53 1.89.715802.7241647 1.099568 1.7125415 1.06 2.73.065386 1.5408772-.561899 3.0302219-1.71 4.06-1.297028 1.0308041-2.925347 1.5534306-4.58 1.47-.738187-.0118209-1.47409-.0854111-2.2-.22z"/><path d="m119.75 7.4c.864081.02478267 1.700591-.30549934 2.314667-.9139071.614077-.60840776.952102-1.44181959.935333-2.3060929-.021222-.81272106-.341707-1.58900569-.9-2.18-.595252-.66676633-1.456811-1.03338724-2.35-1-.552871-.0061747-1.095359.15031234-1.56.45-.484676.29333943-.892581.69781639-1.19 1.18-.292293.46483326-.451406 1.00097215-.46 1.55.007285.86482194.368708 1.6888656 1 2.28.573642.60739116 1.374582.94806239 2.21.94z"/><path d="m150.78 22.94c-.283257-.6440669-.400168-1.3489748-.34-2.05v-8.22c0-2.84-1.17-4.28-3.48-4.28-.64483.00371039-1.285397.10485247-1.9.3-.67297.24487458-1.30896.58137711-1.89 1-.694728.4542393-1.362517.948403-2 1.48-.089556-.7119729-.425686-1.37008055-.95-1.86-.703847-.60486229-1.613115-.9163044-2.54-.87-1.041654.00945141-2.06752.25565914-3 .72-.987714.46305144-1.893006 1.0845957-2.68 1.84v-2.61c-.72.26-1.52.57-2.39.83s-1.74.57-2.61.84-1.59.45-2.2.6v.34c.590691.0109969 1.134401.3243854 1.44.83.340233.9199711.483325 1.9011767.42 2.88v6.18c.067701.7145734-.135762 1.4284794-.57 2-.358516.3708053-.854267.5770666-1.37.57-.542294.0427454-1.07388-.1676739-1.44-.57-.3857-.5916847-.55851-1.2970339-.49-2v-12.61c-1.17.45-2.39.87-3.67 1.25s-2.62.75-3.95 1.06v.3c.729404.0015344 1.406286.3796808 1.79 1 .408199.9449856.589701 1.972352.53 3v5c.055568.9425593-.087523 1.8862778-.42 2.77-.283946.527179-.841503.8485487-1.44.83v.34h17.81v-.34c-.451049-.0474406-.855934-.2977334-1.1-.68-.277854-.6280298-.394712-1.315434-.34-2v-9.16c.289884-.2847693.628605-.5151 1-.68.365961-.1834072.770697-.2760163 1.18-.27.524995-.0370884 1.029318.2112528 1.32.65.33702.7208466.481713 1.5166564.42 2.31v7.2c.057736.6846968-.05925 1.3728458-.34 2-.235689.3608964-.629545.5875497-1.06.61v.34h8.18v-.34c-.448281-.0264303-.861933-.2497292-1.13-.61-.25646-.6617238-.362356-1.3722507-.31-2.08v-9.17c.331039-.294989.685543-.5625393 1.06-.8.357376-.213324.763907-.3304599 1.18-.34.510409-.0114319.987669.2520152 1.25.69.36186.7525172.517163 1.5877057.45 2.42v7.2c.062706.7072249-.025926 1.4196951-.26 2.09-.252666.376925-.687244.5904015-1.14.56v.34h8.2v-.34c-.470692.1315166-.971042-.0694438-1.22-.49z"/><path d="m168.63 12.75c-.173318-.879742-.565371-1.7016781-1.14-2.39-.963124-1.28470039-2.484622-2.02870896-4.09-2-.845783-.01645285-1.685074.15072285-2.46.49-.756354.35838085-1.45965.81939344-2.09 1.37v-1.87c-.72.27-1.55.53-2.42.84s-1.78.56-2.69.83-1.71.49-2.46.68v.3c.475217.0492573.936741.1883931 1.36.41.369233.2744648.613934.6846985.68 1.14.171998.7066349.249341 1.432991.23 2.16v10.5c.034095.8651945-.056842 1.7307815-.27 2.57-.10876.506584-.405309.9531944-.83 1.25-.430074.2479643-.906669.4045597-1.4.46v.34h10.15v-.34c-.681032.0006024-1.333547-.2733818-1.81-.76-.431736-.7437771-.620516-1.6037774-.54-2.46v-2.87c.346848.2632743.735641.4661229 1.15.6.589829.1801639 1.20327.2711689 1.82.27.9452-.0009349 1.881683-.1807667 2.76-.53.860128-.3695992 1.635913-.9106071 2.28-1.59.69091-.7729595 1.218168-1.6778033 1.55-2.66.402622-1.1189966.602418-2.3008391.59-3.49.003015-1.1077865-.124531-2.2120688-.38-3.29zm-6.18 9c-.344478.9088014-1.189888 1.5311171-2.16 1.59-.32298.0011048-.642805-.0635407-.94-.19-.195125-.09871-.373887-.2268786-.53-.38v-12c.496091-.4398371 1.119759-.7096264 1.78-.77.79 0 1.44.53 2 1.55.60754 1.5688578.866858 3.2510119.76 4.93 0 2.46-.27 4.21-.88 5.27z" fill-rule="nonzero"/><path d="m168.82 23.55c.538285.0072468 1.04178-.2653221 1.33-.72.340003-.8151271.480563-1.6996278.41-2.58v-12.69c.088229-1.07203276-.119301-2.14772819-.6-3.11-.347783-.58651126-.988614-.93570644-1.67-.91v-.34c1.25-.31 2.58-.61 3.87-1s2.57-.72 3.71-1.13v19.79c-.057736.6846968.05925 1.3728458.34 2 .262225.3720898.684945.5982818 1.14.61v.34h-8.53z"/><path d="m192.66 17.83c-.72 1.85-2.35 2.76-4.82 2.76-1.360704.0639027-2.68313-.4606959-3.63-1.44-.968769-1.1562945-1.446191-2.6459956-1.33-4.15h10v-.19c.010587-1.1979768-.337697-2.3716938-1-3.37-.68413-.9585294-1.599028-1.72897001-2.66-2.24-2.524399-1.1285295-5.425721-1.04384627-7.88.23-1.239719.6561525-2.276953 1.6380678-3 2.84-.775237 1.2909435-1.170383 2.7744755-1.14 4.28-.030009 1.398728.315296 2.7799501 1 4 .678421 1.1668936 1.664269 2.1250686 2.85 2.77 1.265223.6895572 2.689481 1.0344137 4.13 1 1.843402.0848653 3.656226-.4933936 5.11-1.63 1.426238-1.2383769 2.383101-2.9296585 2.71-4.79zm-9.17-7.47c.257829-.85724564 1.035217-1.45337736 1.93-1.48.274504.0012165.544963.06626357.79.19.25696.14151277.468487.35303963.61.61.15618.24809064.283664.5131239.38.79.127978.395297.205262.8052398.23 1.22 0 .49.07 1.17.07 2v.76h-4.66c.003802-.7855995.053889-1.5702926.15-2.35.111341-.6075007.278723-1.2033803.5-1.78z" fill-rule="nonzero"/></g></svg>
