<svg id="Layer_1" enable-background="new 0 0 256 256" height="512" viewBox="0 0 256 256" width="512" xmlns="http://www.w3.org/2000/svg"><g><g><path d="m198.098 248h-171.637c-4.82 0-8.727-3.907-8.727-8.727v-222.546c0-4.82 3.907-8.727 8.727-8.727h171.636c4.82 0 8.727 3.907 8.727 8.727v222.545c.001 4.821-3.906 8.728-8.726 8.728z" fill="#e0ebfc"/></g><g><path d="m198.098 250h-171.637c-5.915 0-10.727-4.812-10.727-10.727v-222.546c0-5.915 4.812-10.727 10.727-10.727h171.636c5.915 0 10.728 4.812 10.728 10.727v222.546c0 5.915-4.812 10.727-10.727 10.727zm-171.637-240c-3.709 0-6.727 3.018-6.727 6.727v222.546c0 3.709 3.018 6.727 6.727 6.727h171.636c3.709 0 6.728-3.018 6.728-6.727v-222.546c0-3.709-3.018-6.727-6.728-6.727z" fill="#3762cc"/></g><g><path d="m181.58 114.793h-138.601c-3.199 0-5.793-2.593-5.793-5.793 0-3.199 2.593-5.793 5.793-5.793h138.601c3.199 0 5.793 2.593 5.793 5.793 0 3.199-2.593 5.793-5.793 5.793z" fill="#a4c9ff"/></g><g><path d="m181.58 166.793h-138.601c-3.199 0-5.793-2.593-5.793-5.793 0-3.199 2.593-5.793 5.793-5.793h138.601c3.199 0 5.793 2.593 5.793 5.793 0 3.199-2.593 5.793-5.793 5.793z" fill="#a4c9ff"/></g><g><path d="m181.58 222.793h-102.734c-3.199 0-5.793-2.593-5.793-5.793 0-3.199 2.593-5.793 5.793-5.793h102.734c3.199 0 5.793 2.593 5.793 5.793 0 3.199-2.593 5.793-5.793 5.793z" fill="#a4c9ff"/></g><g><path d="m53.654 196h-12c-1.657 0-3-1.343-3-3v-12c0-1.657 1.343-3 3-3h12c1.657 0 3 1.343 3 3v12c0 1.657-1.344 3-3 3z" fill="#a4c9ff"/></g><g><path d="m181.58 192.793h-102.734c-3.199 0-5.793-2.593-5.793-5.793 0-3.199 2.593-5.793 5.793-5.793h102.734c3.199 0 5.793 2.593 5.793 5.793 0 3.199-2.593 5.793-5.793 5.793z" fill="#a4c9ff"/></g><g><path d="m53.654 225.127h-12c-1.657 0-3-1.343-3-3v-12c0-1.657 1.343-3 3-3h12c1.657 0 3 1.343 3 3v12c0 1.657-1.344 3-3 3z" fill="#a4c9ff"/></g><g><path d="m82.119 85.069v-6.407c0-11.067-8.971-20.038-20.038-20.038s-20.038 8.971-20.038 20.038v6.407z" fill="#f9a7a7"/></g><g><path d="m82.119 85.069v-6.407c0-11.067-8.971-20.038-20.038-20.038s-20.038 8.971-20.038 20.038v6.407z" fill="#a4c9ff"/></g><g><path d="m82.119 87.069h-40.076c-1.104 0-2-.896-2-2v-6.406c0-12.152 9.886-22.038 22.038-22.038s22.038 9.886 22.038 22.038v6.406c0 1.105-.895 2-2 2zm-38.076-4h36.076v-4.406c0-9.946-8.092-18.038-18.038-18.038s-18.038 8.092-18.038 18.038z" fill="#3762cc"/></g><g><path d="m82.119 87.069h-40.076c-1.104 0-2-.896-2-2v-6.406c0-12.152 9.886-22.038 22.038-22.038s22.038 9.886 22.038 22.038v6.406c0 1.105-.895 2-2 2zm-38.076-4h36.076v-4.406c0-9.946-8.092-18.038-18.038-18.038s-18.038 8.092-18.038 18.038z" fill="#3762cc"/></g><g><circle cx="62.081" cy="43.754" fill="#f9cfcf" r="16.832"/></g><g><path d="m62.081 62.586c-10.384 0-18.832-8.448-18.832-18.832s8.448-18.832 18.832-18.832 18.832 8.448 18.832 18.832-8.448 18.832-18.832 18.832zm0-33.664c-8.178 0-14.832 6.654-14.832 14.832s6.654 14.832 14.832 14.832 14.832-6.653 14.832-14.832-6.654-14.832-14.832-14.832z" fill="#3762cc"/></g><g><path d="m181.58 140.793h-138.601c-3.199 0-5.793-2.593-5.793-5.793 0-3.199 2.593-5.793 5.793-5.793h138.601c3.199 0 5.793 2.593 5.793 5.793 0 3.199-2.593 5.793-5.793 5.793z" fill="#a4c9ff"/></g><g><path d="m176.143 53.094h-64.948c-3.211 0-5.814-2.603-5.814-5.814 0-3.211 2.603-5.814 5.814-5.814h64.948c3.211 0 5.814 2.603 5.814 5.814-.001 3.211-2.603 5.814-5.814 5.814z" fill="#a4c9ff"/></g><g><path d="m176.143 79.069h-64.948c-3.211 0-5.814-2.603-5.814-5.814 0-3.211 2.603-5.814 5.814-5.814h64.948c3.211 0 5.814 2.603 5.814 5.814-.001 3.212-2.603 5.814-5.814 5.814z" fill="#a4c9ff"/></g><g><path d="m196.027 38.413-70.735 70.735-4.09 22.28c-.14.763.666 1.569 1.429 1.429l22.28-4.09 70.735-70.735z" fill="#f9cfcf"/></g><g><path d="m210.604 52.99-67.88 67.88c1.763 1.763.108 6.288 2.22 7.865l70.703-70.703z" fill="#6bdddd"/></g><g><path d="m201.069 43.455-67.88 67.88c.928.928.725 1.659 1.237 6.285.383 3.458 6.385 1.338 8.298 3.25l67.88-67.88z" fill="#6bdddd"/></g><g><path d="m196.027 38.413-70.703 70.703c1.576 2.112 6.102.457 7.865 2.22l67.88-67.88z" fill="#6bdddd"/></g><g><path d="m195.703 39.196h27.746v10.575h-27.746z" fill="#e0ebfc" transform="matrix(-.707 -.707 .707 -.707 326.314 224.13)"/></g><g><path d="m222.731 20.088 11.24 11.24c2.314 2.314 2.314 6.066 0 8.38l-10.846 10.847-19.62-19.62 10.846-10.847c2.314-2.314 6.066-2.314 8.38 0z" fill="#f9a7a7"/></g><g><path d="m215.646 60.032c-.512 0-1.024-.195-1.414-.586l-19.62-19.62c-.781-.781-.781-2.047 0-2.828l7.478-7.478c.78-.781 2.048-.781 2.828 0l19.62 19.62c.781.781.781 2.047 0 2.828l-7.478 7.478c-.39.391-.902.586-1.414.586zm-16.791-21.619 16.791 16.791 4.649-4.649-16.791-16.791z" fill="#3762cc"/></g><g><path d="m223.125 52.554c-.512 0-1.024-.195-1.414-.586l-19.62-19.62c-.781-.781-.781-2.047 0-2.828l10.847-10.847c3.09-3.091 8.118-3.091 11.208 0l11.24 11.24c3.09 3.09 3.09 8.118 0 11.208l-10.847 10.847c-.391.391-.903.586-1.414.586zm-16.792-21.619 16.791 16.791 9.433-9.432c1.53-1.531 1.53-4.021 0-5.552l-11.24-11.24c-1.531-1.53-4.021-1.53-5.552 0z" fill="#3762cc"/></g><g><path d="m123.571 118.521-2.369 12.907c-.14.763.666 1.569 1.429 1.429l12.907-2.369z" fill="#4671c6"/></g><g><path d="m122.456 134.873c-.833 0-1.662-.347-2.292-.977-.766-.766-1.113-1.824-.929-2.829l4.09-22.28c.073-.399.266-.766.553-1.053l70.735-70.735c.78-.781 2.048-.781 2.828 0l19.62 19.62c.781.781.781 2.047 0 2.828l-70.735 70.735c-.287.287-.654.48-1.053.553l-22.28 4.09c-.178.032-.358.048-.537.048zm4.69-24.752-3.775 20.566 20.566-3.775 68.88-68.88-16.791-16.791z" fill="#3762cc"/></g><g><circle cx="188.266" cy="186.051" fill="#6bdddd" r="50"/></g><g><path d="m188.266 223.139c-20.45 0-37.089-16.638-37.089-37.088s16.638-37.088 37.089-37.088 37.087 16.637 37.087 37.088-16.637 37.088-37.087 37.088z" fill="#ffea92"/></g><g><path d="m188.266 238.051c-28.673 0-52-23.327-52-52s23.327-52 52-52 52 23.327 52 52-23.328 52-52 52zm0-100c-26.467 0-48 21.533-48 48s21.533 48 48 48 48-21.533 48-48-21.533-48-48-48z" fill="#3762cc"/></g><g><path d="m179.361 214.841c-.01 0-.019 0-.028 0-2.903-.009-5.639-1.427-7.317-3.794l-12.346-17.387c-1.919-2.705-1.284-6.453 1.421-8.373 2.706-1.922 6.454-1.282 8.373 1.42l9.913 13.962 25.927-36.046c1.937-2.693 5.69-3.304 8.382-1.369 2.692 1.937 3.305 5.689 1.368 8.382l-28.381 39.458c-1.688 2.347-4.421 3.747-7.312 3.747z" fill="#f9a7a7"/></g></g></svg>