<svg id="Layer_1" enable-background="new 0 0 124 124" height="512" viewBox="0 0 124 124" width="512" xmlns="http://www.w3.org/2000/svg"><path d="m115.986 16.64s-28.021-16.64-53.957-16.64c-25.937 0-53.983 16.64-53.983 16.64-1.878 87.344 53.97 107.36 53.97 107.36s53.186-25.468 53.978-102.702c.003-.084.016-3.221-.008-4.658z" fill="#27a88f"/><path d="m8.046 16.64c-1.866 86.8 53.266 107.104 53.954 107.354v-123.993c-25.928.012-53.954 16.639-53.954 16.639z" fill="#52efbb"/><ellipse cx="62" cy="55.8" fill="#fff" rx="21.808" ry="21.7"/><path d="m57.113 64.538-5.892-4.181c-.901-.639-1.113-1.887-.474-2.788.639-.9 1.888-1.113 2.788-.474l4.47 3.171 12.158-12.943c.756-.806 2.022-.845 2.827-.089s.845 2.022.089 2.827l-13.351 14.215c-.457.662-1.874.87-2.615.262z" fill="#4d28a8"/></svg>