<svg role="img" viewBox="0 0 48 48"><g id="biz-delivery" stroke-width="2" fill="none" fill-rule="evenodd" stroke-linejoin="round"><path d="M33 26h9l5 8v7h-5m-20 0h11V20H22m-10.99 4.995L11 41h5"></path><path d="M41.986 40.982a2.997 2.997 0 1 1-5.995 0 2.997 2.997 0 0 1 6 0zm-19.984 0a2.997 2.997 0 1 1-5.995 0 2.997 2.997 0 0 1 5.995 0zm-2.998-27.97c0 4.903-4.09 8.994-8.993 8.994-4.9 0-8.99-4.09-8.99-8.993 0-4.903 4.09-8.992 8.994-8.992s8.994 4.09 8.994 8.996z"></path><path d="M9.012 8.008v5.996h3.997M1 31l6.014.005M4 34h3m-1 3h1" stroke-linecap="round"></path><path d="M33 33h13m-13 8h3"></path></g></svg>