<svg role="img" viewBox="0 0 48 48"><g id="chat-question" fill="none" fill-rule="evenodd"><path d="M47 21.268c0 10.363-10.297 18.765-23 18.765-2.835 0-5.55-.418-8.058-1.184L2.725 45 7.9 34.668c-4.258-3.406-6.9-8.15-6.9-13.4C1 10.904 11.297 2.502 24 2.502s23 8.402 23 18.766z" stroke-width="2" stroke-linejoin="round"></path><path d="M25 28.502a2 2 0 1 0 0 4 2 2 0 0 0 0-4" fill="#231F1F"></path><path d="M19 17.75c0-3.312 2.686-6.124 6-6.124 3.313 0 6 2.626 6 5.938 0 3.315-2.687 5.938-6 5.938V26" stroke-width="2" stroke-linecap="round" stroke-linejoin="round"></path></g></svg>