<svg width="887" height="835" viewBox="0 0 887 835" fill="none" xmlns="http://www.w3.org/2000/svg">
<rect x="-339" y="18" width="1208" height="799" rx="50" fill="#F3FAFB"/>
<rect x="-348" y="9" width="1226" height="817" rx="59" stroke="white" stroke-opacity="0.29" stroke-width="18"/>
<rect x="-284" y="71" width="1102" height="700" rx="50" fill="white"/>
<rect x="550" y="393" width="225" height="50" rx="25" fill="#232323"/>
<rect x="291" y="673" width="175" height="60" rx="30" fill="#232323"/>
<rect x="202.5" y="152.5" width="308" height="49" rx="24.5" fill="#F3FAFB" stroke="#F1F1F1"/>
<rect x="202.5" y="232.5" width="308" height="50" rx="25" fill="#F3FAFB" stroke="#F1F1F1"/>
<rect x="202.5" y="313.5" width="308" height="49" rx="24.5" fill="#F3FAFB" stroke="#F1F1F1"/>
<rect x="202.5" y="393.5" width="308" height="49" rx="24.5" fill="#F3FAFB" stroke="#F1F1F1"/>
<rect x="202.5" y="472.5" width="308" height="50" rx="25" fill="#F3FAFB" stroke="#F1F1F1"/>
<rect x="202.5" y="552.5" width="308" height="49" rx="24.5" fill="#F3FAFB" stroke="#F1F1F1"/>
<path d="M209.172 123.547L214.844 105.25H219.609L211.578 128H208.406L209.172 123.547ZM203.938 105.25L209.578 123.547L210.391 128H207.188L199.188 105.25H203.938ZM229.934 124.406V116.609C229.934 116.036 229.835 115.542 229.638 115.125C229.44 114.708 229.138 114.385 228.731 114.156C228.325 113.927 227.809 113.812 227.184 113.812C226.632 113.812 226.148 113.906 225.731 114.094C225.325 114.281 225.013 114.547 224.794 114.891C224.575 115.224 224.466 115.609 224.466 116.047H220.325C220.325 115.349 220.492 114.688 220.825 114.062C221.158 113.427 221.632 112.865 222.247 112.375C222.872 111.875 223.617 111.484 224.481 111.203C225.356 110.922 226.335 110.781 227.419 110.781C228.7 110.781 229.841 111 230.841 111.438C231.851 111.865 232.643 112.51 233.216 113.375C233.799 114.24 234.091 115.328 234.091 116.641V124.016C234.091 124.859 234.143 125.583 234.247 126.188C234.361 126.781 234.528 127.297 234.747 127.734V128H230.544C230.346 127.573 230.195 127.031 230.091 126.375C229.986 125.708 229.934 125.052 229.934 124.406ZM230.513 117.703L230.544 120.156H227.934C227.289 120.156 226.721 120.224 226.231 120.359C225.742 120.484 225.341 120.672 225.028 120.922C224.716 121.161 224.481 121.453 224.325 121.797C224.169 122.13 224.091 122.51 224.091 122.938C224.091 123.354 224.184 123.729 224.372 124.062C224.57 124.396 224.851 124.661 225.216 124.859C225.591 125.047 226.028 125.141 226.528 125.141C227.257 125.141 227.893 124.995 228.434 124.703C228.976 124.401 229.398 124.036 229.7 123.609C230.002 123.182 230.164 122.776 230.184 122.391L231.372 124.172C231.226 124.599 231.007 125.052 230.716 125.531C230.424 126.01 230.049 126.458 229.591 126.875C229.132 127.292 228.58 127.635 227.934 127.906C227.289 128.177 226.539 128.312 225.684 128.312C224.591 128.312 223.611 128.094 222.747 127.656C221.882 127.219 221.2 126.62 220.7 125.859C220.2 125.099 219.95 124.234 219.95 123.266C219.95 122.37 220.117 121.578 220.45 120.891C220.783 120.203 221.278 119.625 221.934 119.156C222.591 118.677 223.403 118.318 224.372 118.078C225.351 117.828 226.471 117.703 227.731 117.703H230.513ZM241.884 104V128H237.744V104H241.884ZM255.584 123.984V111.094H259.741V128H255.834L255.584 123.984ZM256.116 120.484L257.397 120.453C257.397 121.589 257.272 122.635 257.022 123.594C256.772 124.552 256.381 125.385 255.85 126.094C255.329 126.792 254.668 127.339 253.866 127.734C253.064 128.12 252.116 128.312 251.022 128.312C250.189 128.312 249.428 128.198 248.741 127.969C248.053 127.729 247.459 127.359 246.959 126.859C246.47 126.349 246.09 125.698 245.819 124.906C245.548 124.104 245.412 123.141 245.412 122.016V111.094H249.537V122.047C249.537 122.609 249.6 123.078 249.725 123.453C249.86 123.828 250.043 124.135 250.272 124.375C250.511 124.604 250.787 124.771 251.1 124.875C251.423 124.969 251.767 125.016 252.131 125.016C253.131 125.016 253.918 124.818 254.491 124.422C255.074 124.016 255.491 123.474 255.741 122.797C255.991 122.109 256.116 121.339 256.116 120.484ZM270.691 128.312C269.409 128.312 268.258 128.104 267.237 127.688C266.217 127.271 265.347 126.693 264.628 125.953C263.92 125.203 263.373 124.333 262.987 123.344C262.612 122.344 262.425 121.271 262.425 120.125V119.5C262.425 118.198 262.612 117.016 262.987 115.953C263.362 114.88 263.894 113.958 264.581 113.188C265.269 112.417 266.092 111.823 267.05 111.406C268.008 110.99 269.066 110.781 270.222 110.781C271.42 110.781 272.477 110.984 273.394 111.391C274.31 111.786 275.076 112.349 275.691 113.078C276.305 113.807 276.769 114.682 277.081 115.703C277.394 116.714 277.55 117.833 277.55 119.062V120.797H264.3V117.953H273.487V117.641C273.467 116.984 273.342 116.385 273.112 115.844C272.883 115.292 272.529 114.854 272.05 114.531C271.571 114.198 270.951 114.031 270.191 114.031C269.576 114.031 269.04 114.167 268.581 114.438C268.133 114.698 267.758 115.073 267.456 115.562C267.165 116.042 266.946 116.615 266.8 117.281C266.654 117.948 266.581 118.688 266.581 119.5V120.125C266.581 120.833 266.675 121.49 266.862 122.094C267.06 122.698 267.347 123.224 267.722 123.672C268.107 124.109 268.566 124.453 269.097 124.703C269.639 124.943 270.253 125.062 270.941 125.062C271.805 125.062 272.586 124.896 273.284 124.562C273.993 124.219 274.607 123.714 275.128 123.047L277.206 125.203C276.852 125.724 276.373 126.224 275.769 126.703C275.175 127.182 274.456 127.573 273.612 127.875C272.769 128.167 271.795 128.312 270.691 128.312ZM289.312 123.375C289.312 123.021 289.219 122.703 289.031 122.422C288.844 122.141 288.49 121.885 287.969 121.656C287.458 121.417 286.708 121.193 285.719 120.984C284.844 120.797 284.036 120.562 283.297 120.281C282.557 120 281.922 119.661 281.391 119.266C280.859 118.859 280.443 118.385 280.141 117.844C279.849 117.292 279.703 116.656 279.703 115.938C279.703 115.24 279.854 114.583 280.156 113.969C280.458 113.344 280.896 112.797 281.469 112.328C282.042 111.849 282.74 111.474 283.562 111.203C284.385 110.922 285.312 110.781 286.344 110.781C287.781 110.781 289.016 111.016 290.047 111.484C291.089 111.953 291.885 112.599 292.438 113.422C292.99 114.234 293.266 115.151 293.266 116.172H289.141C289.141 115.724 289.036 115.318 288.828 114.953C288.63 114.589 288.323 114.297 287.906 114.078C287.49 113.849 286.964 113.734 286.328 113.734C285.755 113.734 285.271 113.828 284.875 114.016C284.49 114.203 284.198 114.448 284 114.75C283.802 115.052 283.703 115.385 283.703 115.75C283.703 116.021 283.755 116.266 283.859 116.484C283.974 116.693 284.156 116.885 284.406 117.062C284.656 117.24 284.995 117.401 285.422 117.547C285.859 117.693 286.396 117.833 287.031 117.969C288.292 118.219 289.391 118.552 290.328 118.969C291.276 119.375 292.016 119.917 292.547 120.594C293.078 121.271 293.344 122.135 293.344 123.188C293.344 123.938 293.182 124.625 292.859 125.25C292.536 125.865 292.068 126.401 291.453 126.859C290.839 127.318 290.104 127.677 289.25 127.938C288.396 128.188 287.432 128.312 286.359 128.312C284.807 128.312 283.495 128.036 282.422 127.484C281.349 126.922 280.536 126.214 279.984 125.359C279.432 124.495 279.156 123.599 279.156 122.672H283.109C283.141 123.328 283.318 123.854 283.641 124.25C283.964 124.646 284.37 124.932 284.859 125.109C285.359 125.276 285.885 125.359 286.438 125.359C287.062 125.359 287.589 125.276 288.016 125.109C288.443 124.932 288.766 124.698 288.984 124.406C289.203 124.104 289.312 123.76 289.312 123.375Z" fill="black"/>
<path d="M165.807 693.227H172.093C173.444 693.227 174.596 693.43 175.548 693.837C176.5 694.244 177.228 694.846 177.733 695.644C178.246 696.433 178.502 697.41 178.502 698.573C178.502 699.46 178.339 700.242 178.014 700.917C177.688 701.592 177.228 702.162 176.634 702.626C176.04 703.082 175.332 703.436 174.51 703.688L173.583 704.14H167.931L167.906 701.71H172.142C172.875 701.71 173.485 701.58 173.973 701.32C174.461 701.059 174.828 700.705 175.072 700.258C175.324 699.802 175.45 699.289 175.45 698.72C175.45 698.101 175.328 697.564 175.084 697.108C174.848 696.645 174.482 696.291 173.985 696.046C173.489 695.794 172.858 695.668 172.093 695.668H168.871V711H165.807V693.227ZM175.951 711L171.776 703.017L174.986 703.004L179.222 710.841V711H175.951ZM186.783 711.244C185.807 711.244 184.924 711.085 184.135 710.768C183.353 710.443 182.686 709.991 182.133 709.413C181.587 708.835 181.168 708.156 180.875 707.375C180.582 706.593 180.436 705.751 180.436 704.848V704.359C180.436 703.326 180.586 702.39 180.887 701.552C181.189 700.714 181.608 699.997 182.145 699.403C182.682 698.801 183.317 698.341 184.049 698.024C184.782 697.707 185.575 697.548 186.429 697.548C187.374 697.548 188.2 697.707 188.908 698.024C189.616 698.341 190.201 698.789 190.665 699.367C191.137 699.936 191.487 700.616 191.715 701.405C191.951 702.195 192.069 703.065 192.069 704.018V705.275H181.864V703.163H189.164V702.931C189.148 702.402 189.042 701.906 188.846 701.442C188.659 700.978 188.37 700.604 187.98 700.319C187.589 700.034 187.068 699.892 186.417 699.892C185.929 699.892 185.494 699.997 185.111 700.209C184.737 700.412 184.423 700.709 184.171 701.1C183.919 701.491 183.724 701.963 183.585 702.516C183.455 703.061 183.39 703.676 183.39 704.359V704.848C183.39 705.425 183.467 705.963 183.622 706.459C183.785 706.947 184.021 707.375 184.33 707.741C184.639 708.107 185.013 708.396 185.453 708.607C185.892 708.811 186.393 708.913 186.954 708.913C187.662 708.913 188.293 708.77 188.846 708.485C189.4 708.201 189.88 707.798 190.287 707.277L191.837 708.778C191.552 709.193 191.182 709.592 190.726 709.975C190.271 710.349 189.713 710.654 189.054 710.89C188.403 711.126 187.646 711.244 186.783 711.244ZM201.474 707.423C201.474 707.13 201.4 706.866 201.254 706.63C201.108 706.386 200.827 706.166 200.412 705.971C200.005 705.775 199.403 705.596 198.605 705.434C197.905 705.279 197.262 705.096 196.676 704.884C196.099 704.665 195.602 704.4 195.187 704.091C194.772 703.782 194.451 703.415 194.223 702.992C193.995 702.569 193.881 702.081 193.881 701.527C193.881 700.99 193.999 700.482 194.235 700.001C194.471 699.521 194.809 699.098 195.248 698.732C195.688 698.366 196.221 698.077 196.847 697.865C197.482 697.654 198.19 697.548 198.971 697.548C200.078 697.548 201.026 697.735 201.816 698.109C202.613 698.476 203.223 698.976 203.647 699.611C204.07 700.237 204.281 700.945 204.281 701.735H201.339C201.339 701.385 201.25 701.059 201.071 700.758C200.9 700.449 200.64 700.201 200.29 700.014C199.94 699.818 199.5 699.721 198.971 699.721C198.467 699.721 198.048 699.802 197.714 699.965C197.388 700.119 197.144 700.323 196.982 700.575C196.827 700.827 196.75 701.104 196.75 701.405C196.75 701.625 196.79 701.824 196.872 702.003C196.961 702.174 197.108 702.333 197.311 702.479C197.515 702.618 197.791 702.748 198.141 702.87C198.499 702.992 198.947 703.11 199.484 703.224C200.493 703.436 201.36 703.708 202.084 704.042C202.817 704.368 203.378 704.791 203.769 705.312C204.159 705.824 204.355 706.475 204.355 707.265C204.355 707.851 204.228 708.388 203.976 708.876C203.732 709.356 203.374 709.775 202.902 710.133C202.43 710.483 201.864 710.756 201.205 710.951C200.554 711.146 199.822 711.244 199.008 711.244C197.812 711.244 196.798 711.033 195.968 710.609C195.138 710.178 194.508 709.629 194.076 708.961C193.653 708.286 193.442 707.586 193.442 706.862H196.286C196.318 707.407 196.469 707.842 196.737 708.168C197.014 708.485 197.356 708.717 197.763 708.864C198.178 709.002 198.605 709.071 199.045 709.071C199.574 709.071 200.017 709.002 200.375 708.864C200.733 708.717 201.006 708.522 201.193 708.278C201.38 708.026 201.474 707.741 201.474 707.423ZM212.453 711.244C211.476 711.244 210.593 711.085 209.804 710.768C209.023 710.443 208.356 709.991 207.802 709.413C207.257 708.835 206.838 708.156 206.545 707.375C206.252 706.593 206.105 705.751 206.105 704.848V704.359C206.105 703.326 206.256 702.39 206.557 701.552C206.858 700.714 207.277 699.997 207.814 699.403C208.351 698.801 208.986 698.341 209.719 698.024C210.451 697.707 211.245 697.548 212.099 697.548C213.043 697.548 213.869 697.707 214.577 698.024C215.285 698.341 215.871 698.789 216.335 699.367C216.807 699.936 217.157 700.616 217.385 701.405C217.621 702.195 217.739 703.065 217.739 704.018V705.275H207.534V703.163H214.833V702.931C214.817 702.402 214.711 701.906 214.516 701.442C214.329 700.978 214.04 700.604 213.649 700.319C213.259 700.034 212.738 699.892 212.087 699.892C211.599 699.892 211.163 699.997 210.781 700.209C210.406 700.412 210.093 700.709 209.841 701.1C209.588 701.491 209.393 701.963 209.255 702.516C209.125 703.061 209.059 703.676 209.059 704.359V704.848C209.059 705.425 209.137 705.963 209.291 706.459C209.454 706.947 209.69 707.375 209.999 707.741C210.309 708.107 210.683 708.396 211.122 708.607C211.562 708.811 212.062 708.913 212.624 708.913C213.332 708.913 213.963 708.77 214.516 708.485C215.069 708.201 215.55 707.798 215.956 707.277L217.507 708.778C217.222 709.193 216.852 709.592 216.396 709.975C215.94 710.349 215.383 710.654 214.724 710.89C214.072 711.126 213.316 711.244 212.453 711.244ZM225.788 697.792V699.94H218.342V697.792H225.788ZM220.49 694.557H223.432V707.35C223.432 707.757 223.489 708.07 223.603 708.29C223.725 708.502 223.892 708.644 224.104 708.717C224.315 708.791 224.564 708.827 224.848 708.827C225.052 708.827 225.247 708.815 225.434 708.791C225.621 708.766 225.772 708.742 225.886 708.717L225.898 710.963C225.654 711.037 225.369 711.102 225.044 711.159C224.726 711.216 224.36 711.244 223.945 711.244C223.27 711.244 222.671 711.126 222.151 710.89C221.63 710.646 221.223 710.251 220.93 709.706C220.637 709.161 220.49 708.437 220.49 707.533V694.557Z" fill="#666666"/>
<path d="M596.672 420.279C596.672 420.025 596.633 419.798 596.555 419.596C596.483 419.387 596.346 419.199 596.145 419.029C595.943 418.854 595.66 418.681 595.295 418.512C594.93 418.342 594.458 418.167 593.879 417.984C593.234 417.776 592.622 417.542 592.043 417.281C591.47 417.021 590.962 416.718 590.52 416.373C590.083 416.021 589.738 415.615 589.484 415.152C589.237 414.69 589.113 414.153 589.113 413.541C589.113 412.949 589.243 412.411 589.504 411.93C589.764 411.441 590.129 411.025 590.598 410.68C591.066 410.328 591.62 410.058 592.258 409.869C592.902 409.68 593.609 409.586 594.377 409.586C595.425 409.586 596.34 409.775 597.121 410.152C597.902 410.53 598.508 411.048 598.938 411.705C599.374 412.363 599.592 413.115 599.592 413.961H596.682C596.682 413.544 596.594 413.18 596.418 412.867C596.249 412.548 595.988 412.298 595.637 412.115C595.292 411.933 594.855 411.842 594.328 411.842C593.82 411.842 593.397 411.92 593.059 412.076C592.72 412.226 592.466 412.431 592.297 412.691C592.128 412.945 592.043 413.232 592.043 413.551C592.043 413.792 592.102 414.01 592.219 414.205C592.342 414.4 592.525 414.583 592.766 414.752C593.007 414.921 593.303 415.081 593.654 415.23C594.006 415.38 594.413 415.527 594.875 415.67C595.65 415.904 596.33 416.168 596.916 416.461C597.508 416.754 598.003 417.083 598.4 417.447C598.798 417.812 599.097 418.225 599.299 418.688C599.501 419.15 599.602 419.674 599.602 420.26C599.602 420.878 599.481 421.432 599.24 421.92C598.999 422.408 598.651 422.822 598.195 423.16C597.74 423.499 597.196 423.756 596.564 423.932C595.933 424.107 595.227 424.195 594.445 424.195C593.742 424.195 593.049 424.104 592.365 423.922C591.682 423.733 591.06 423.45 590.5 423.072C589.947 422.695 589.504 422.213 589.172 421.627C588.84 421.041 588.674 420.348 588.674 419.547H591.613C591.613 419.99 591.682 420.364 591.818 420.67C591.955 420.976 592.147 421.223 592.395 421.412C592.648 421.601 592.948 421.738 593.293 421.822C593.645 421.907 594.029 421.949 594.445 421.949C594.953 421.949 595.37 421.878 595.695 421.734C596.027 421.591 596.271 421.393 596.428 421.139C596.59 420.885 596.672 420.598 596.672 420.279ZM604.136 421.266L606.333 413.434H608.12L607.544 416.51L605.346 424H603.852L604.136 421.266ZM603.022 413.434L604.595 421.256L604.741 424H602.983L600.307 413.434H603.022ZM610.132 421.129L611.665 413.434H614.389L611.714 424H609.966L610.132 421.129ZM608.364 413.434L610.552 421.207L610.854 424H609.35L607.153 416.52L606.596 413.434H608.364ZM621.209 421.617V416.91C621.209 416.572 621.153 416.282 621.043 416.041C620.932 415.794 620.759 415.602 620.525 415.465C620.297 415.328 620.001 415.26 619.636 415.26C619.324 415.26 619.054 415.315 618.826 415.426C618.598 415.53 618.422 415.683 618.298 415.885C618.175 416.08 618.113 416.311 618.113 416.578H615.3C615.3 416.129 615.405 415.702 615.613 415.299C615.821 414.895 616.124 414.54 616.521 414.234C616.918 413.922 617.39 413.678 617.937 413.502C618.49 413.326 619.109 413.238 619.793 413.238C620.613 413.238 621.342 413.375 621.98 413.648C622.618 413.922 623.119 414.332 623.484 414.879C623.855 415.426 624.041 416.109 624.041 416.93V421.451C624.041 422.031 624.076 422.506 624.148 422.877C624.22 423.242 624.324 423.561 624.461 423.834V424H621.619C621.482 423.714 621.378 423.355 621.306 422.926C621.241 422.49 621.209 422.053 621.209 421.617ZM621.58 417.564L621.599 419.156H620.027C619.656 419.156 619.334 419.199 619.06 419.283C618.787 419.368 618.562 419.488 618.386 419.645C618.211 419.794 618.08 419.97 617.996 420.172C617.918 420.374 617.879 420.595 617.879 420.836C617.879 421.077 617.934 421.295 618.045 421.49C618.155 421.679 618.315 421.829 618.523 421.939C618.731 422.044 618.976 422.096 619.255 422.096C619.679 422.096 620.046 422.011 620.359 421.842C620.671 421.673 620.912 421.464 621.082 421.217C621.257 420.969 621.349 420.735 621.355 420.514L622.097 421.705C621.993 421.972 621.85 422.249 621.668 422.535C621.492 422.822 621.267 423.092 620.994 423.346C620.72 423.593 620.392 423.798 620.007 423.961C619.623 424.117 619.168 424.195 618.64 424.195C617.97 424.195 617.361 424.062 616.814 423.795C616.274 423.521 615.844 423.147 615.525 422.672C615.212 422.19 615.056 421.643 615.056 421.031C615.056 420.478 615.16 419.986 615.369 419.557C615.577 419.127 615.883 418.766 616.287 418.473C616.697 418.173 617.208 417.949 617.82 417.799C618.432 417.643 619.142 417.564 619.949 417.564H621.58ZM628.721 415.465V428.062H625.909V413.434H628.516L628.721 415.465ZM635.411 418.6V418.805C635.411 419.573 635.319 420.286 635.137 420.943C634.961 421.601 634.701 422.174 634.356 422.662C634.011 423.144 633.581 423.521 633.067 423.795C632.559 424.062 631.973 424.195 631.309 424.195C630.664 424.195 630.105 424.065 629.629 423.805C629.154 423.544 628.754 423.18 628.428 422.711C628.109 422.236 627.852 421.686 627.657 421.061C627.461 420.436 627.312 419.765 627.207 419.049V418.512C627.312 417.743 627.461 417.04 627.657 416.402C627.852 415.758 628.109 415.201 628.428 414.732C628.754 414.257 629.151 413.889 629.62 413.629C630.095 413.368 630.651 413.238 631.289 413.238C631.96 413.238 632.549 413.365 633.057 413.619C633.571 413.873 634.001 414.238 634.346 414.713C634.698 415.188 634.961 415.755 635.137 416.412C635.319 417.07 635.411 417.799 635.411 418.6ZM632.588 418.805V418.6C632.588 418.15 632.549 417.737 632.471 417.359C632.399 416.975 632.282 416.64 632.12 416.354C631.963 416.067 631.755 415.846 631.495 415.689C631.241 415.527 630.931 415.445 630.567 415.445C630.183 415.445 629.854 415.507 629.58 415.631C629.314 415.755 629.095 415.934 628.926 416.168C628.757 416.402 628.63 416.682 628.545 417.008C628.461 417.333 628.409 417.701 628.389 418.111V419.469C628.422 419.951 628.513 420.383 628.662 420.768C628.812 421.145 629.043 421.445 629.356 421.666C629.668 421.887 630.079 421.998 630.586 421.998C630.957 421.998 631.27 421.917 631.524 421.754C631.778 421.585 631.983 421.354 632.139 421.061C632.302 420.768 632.416 420.429 632.481 420.045C632.552 419.661 632.588 419.247 632.588 418.805ZM644.557 421.266L646.754 413.434H648.541L647.965 416.51L645.768 424H644.273L644.557 421.266ZM643.443 413.434L645.016 421.256L645.162 424H643.404L640.729 413.434H643.443ZM650.553 421.129L652.086 413.434H654.811L652.135 424H650.387L650.553 421.129ZM648.785 413.434L650.973 421.207L651.275 424H649.771L647.574 416.52L647.018 413.434H648.785ZM658.895 413.434V424H656.073V413.434H658.895ZM655.897 410.68C655.897 410.27 656.04 409.931 656.327 409.664C656.613 409.397 656.998 409.264 657.479 409.264C657.955 409.264 658.335 409.397 658.622 409.664C658.915 409.931 659.061 410.27 659.061 410.68C659.061 411.09 658.915 411.428 658.622 411.695C658.335 411.962 657.955 412.096 657.479 412.096C656.998 412.096 656.613 411.962 656.327 411.695C656.04 411.428 655.897 411.09 655.897 410.68ZM666.095 413.434V415.426H659.943V413.434H666.095ZM661.466 410.826H664.279V420.816C664.279 421.122 664.318 421.357 664.396 421.52C664.481 421.682 664.604 421.796 664.767 421.861C664.93 421.92 665.135 421.949 665.382 421.949C665.558 421.949 665.714 421.943 665.851 421.93C665.994 421.91 666.115 421.891 666.213 421.871L666.222 423.941C665.981 424.02 665.721 424.081 665.441 424.127C665.161 424.173 664.852 424.195 664.513 424.195C663.895 424.195 663.354 424.094 662.892 423.893C662.436 423.684 662.085 423.352 661.838 422.896C661.59 422.441 661.466 421.842 661.466 421.1V410.826ZM670.141 409V424H667.329V409H670.141ZM669.741 418.346H668.969C668.976 417.61 669.073 416.933 669.262 416.314C669.451 415.689 669.721 415.149 670.073 414.693C670.424 414.231 670.844 413.873 671.332 413.619C671.827 413.365 672.374 413.238 672.973 413.238C673.494 413.238 673.966 413.313 674.389 413.463C674.819 413.606 675.187 413.84 675.493 414.166C675.805 414.485 676.046 414.905 676.215 415.426C676.385 415.947 676.469 416.578 676.469 417.32V424H673.637V417.301C673.637 416.832 673.569 416.464 673.432 416.197C673.302 415.924 673.11 415.732 672.856 415.621C672.608 415.504 672.302 415.445 671.938 415.445C671.534 415.445 671.189 415.52 670.903 415.67C670.623 415.82 670.398 416.028 670.229 416.295C670.06 416.555 669.936 416.861 669.858 417.213C669.78 417.564 669.741 417.942 669.741 418.346ZM684.502 409.781H686.982L690.635 420.221L694.287 409.781H696.768L691.631 424H689.639L684.502 409.781ZM683.164 409.781H685.635L686.084 419.957V424H683.164V409.781ZM695.635 409.781H698.115V424H695.186V419.957L695.635 409.781ZM699.759 418.824V418.619C699.759 417.844 699.869 417.132 700.091 416.48C700.312 415.823 700.634 415.253 701.057 414.771C701.481 414.29 702.001 413.915 702.62 413.648C703.238 413.375 703.948 413.238 704.749 413.238C705.55 413.238 706.262 413.375 706.887 413.648C707.512 413.915 708.037 414.29 708.46 414.771C708.889 415.253 709.215 415.823 709.436 416.48C709.658 417.132 709.768 417.844 709.768 418.619V418.824C709.768 419.592 709.658 420.305 709.436 420.963C709.215 421.614 708.889 422.184 708.46 422.672C708.037 423.154 707.516 423.528 706.897 423.795C706.279 424.062 705.569 424.195 704.768 424.195C703.968 424.195 703.255 424.062 702.63 423.795C702.011 423.528 701.487 423.154 701.057 422.672C700.634 422.184 700.312 421.614 700.091 420.963C699.869 420.305 699.759 419.592 699.759 418.824ZM702.571 418.619V418.824C702.571 419.267 702.61 419.68 702.688 420.064C702.766 420.449 702.89 420.787 703.059 421.08C703.235 421.367 703.463 421.591 703.743 421.754C704.023 421.917 704.365 421.998 704.768 421.998C705.159 421.998 705.494 421.917 705.774 421.754C706.054 421.591 706.279 421.367 706.448 421.08C706.617 420.787 706.741 420.449 706.819 420.064C706.904 419.68 706.946 419.267 706.946 418.824V418.619C706.946 418.189 706.904 417.786 706.819 417.408C706.741 417.024 706.614 416.686 706.438 416.393C706.269 416.093 706.044 415.859 705.764 415.689C705.485 415.52 705.146 415.436 704.749 415.436C704.352 415.436 704.013 415.52 703.733 415.689C703.46 415.859 703.235 416.093 703.059 416.393C702.89 416.686 702.766 417.024 702.688 417.408C702.61 417.786 702.571 418.189 702.571 418.619ZM713.951 415.689V424H711.138V413.434H713.775L713.951 415.689ZM713.541 418.346H712.779C712.779 417.564 712.88 416.861 713.082 416.236C713.283 415.605 713.567 415.068 713.931 414.625C714.296 414.176 714.729 413.834 715.23 413.6C715.738 413.359 716.304 413.238 716.929 413.238C717.424 413.238 717.877 413.31 718.287 413.453C718.697 413.596 719.048 413.824 719.341 414.137C719.641 414.449 719.869 414.863 720.025 415.377C720.188 415.891 720.269 416.52 720.269 417.262V424H717.437V417.252C717.437 416.783 717.372 416.419 717.242 416.158C717.112 415.898 716.92 415.715 716.666 415.611C716.418 415.501 716.112 415.445 715.748 415.445C715.37 415.445 715.041 415.52 714.761 415.67C714.488 415.82 714.26 416.028 714.078 416.295C713.902 416.555 713.768 416.861 713.677 417.213C713.586 417.564 713.541 417.942 713.541 418.346ZM726.971 424.195C726.151 424.195 725.415 424.065 724.764 423.805C724.113 423.538 723.56 423.17 723.104 422.701C722.655 422.232 722.31 421.689 722.069 421.07C721.828 420.445 721.707 419.781 721.707 419.078V418.688C721.707 417.887 721.821 417.154 722.049 416.49C722.277 415.826 722.603 415.25 723.026 414.762C723.455 414.273 723.976 413.899 724.588 413.639C725.2 413.372 725.89 413.238 726.659 413.238C727.407 413.238 728.071 413.362 728.651 413.609C729.23 413.857 729.715 414.208 730.106 414.664C730.503 415.12 730.802 415.667 731.004 416.305C731.206 416.936 731.307 417.639 731.307 418.414V419.586H722.909V417.711H728.543V417.496C728.543 417.105 728.472 416.757 728.329 416.451C728.192 416.139 727.983 415.891 727.704 415.709C727.424 415.527 727.066 415.436 726.629 415.436C726.258 415.436 725.939 415.517 725.672 415.68C725.405 415.842 725.187 416.07 725.018 416.363C724.855 416.656 724.732 417.001 724.647 417.398C724.569 417.789 724.53 418.219 724.53 418.688V419.078C724.53 419.501 724.588 419.892 724.705 420.25C724.829 420.608 725.002 420.917 725.223 421.178C725.451 421.438 725.724 421.64 726.043 421.783C726.369 421.926 726.737 421.998 727.147 421.998C727.655 421.998 728.127 421.9 728.563 421.705C729.006 421.503 729.386 421.201 729.705 420.797L731.073 422.281C730.851 422.6 730.549 422.906 730.164 423.199C729.787 423.492 729.331 423.733 728.797 423.922C728.263 424.104 727.655 424.195 726.971 424.195ZM735.607 422.809L738.409 413.434H741.427L737.179 425.592C737.088 425.859 736.964 426.145 736.808 426.451C736.658 426.757 736.453 427.047 736.193 427.32C735.939 427.6 735.616 427.828 735.226 428.004C734.842 428.18 734.37 428.268 733.81 428.268C733.543 428.268 733.325 428.251 733.155 428.219C732.986 428.186 732.784 428.141 732.55 428.082V426.021C732.622 426.021 732.696 426.021 732.775 426.021C732.853 426.028 732.928 426.031 732.999 426.031C733.37 426.031 733.673 425.989 733.907 425.904C734.142 425.82 734.331 425.689 734.474 425.514C734.617 425.344 734.731 425.123 734.816 424.85L735.607 422.809ZM734.435 413.434L736.73 421.09L737.13 424.068L735.216 424.273L731.417 413.434H734.435Z" fill="white"/>
<path d="M336.89 705.104H340.54C340.466 706.3 340.137 707.362 339.551 708.29C338.973 709.218 338.163 709.942 337.122 710.463C336.088 710.984 334.843 711.244 333.386 711.244C332.247 711.244 331.226 711.049 330.322 710.658C329.419 710.259 328.646 709.69 328.003 708.949C327.368 708.209 326.884 707.313 326.55 706.264C326.217 705.214 326.05 704.038 326.05 702.736V701.503C326.05 700.201 326.221 699.025 326.562 697.975C326.912 696.917 327.409 696.018 328.052 695.277C328.703 694.537 329.48 693.967 330.383 693.568C331.287 693.17 332.296 692.97 333.411 692.97C334.892 692.97 336.141 693.239 337.158 693.776C338.184 694.313 338.977 695.054 339.539 695.998C340.108 696.942 340.45 698.016 340.564 699.22H336.902C336.861 698.504 336.719 697.898 336.475 697.401C336.23 696.897 335.86 696.518 335.364 696.266C334.875 696.006 334.224 695.875 333.411 695.875C332.8 695.875 332.267 695.989 331.812 696.217C331.356 696.445 330.973 696.791 330.664 697.255C330.355 697.719 330.123 698.305 329.968 699.013C329.822 699.713 329.749 700.535 329.749 701.479V702.736C329.749 703.655 329.818 704.465 329.956 705.165C330.094 705.857 330.306 706.443 330.591 706.923C330.884 707.395 331.258 707.753 331.714 707.997C332.178 708.233 332.735 708.351 333.386 708.351C334.151 708.351 334.782 708.229 335.278 707.985C335.775 707.741 336.153 707.379 336.414 706.898C336.682 706.418 336.841 705.82 336.89 705.104ZM349.554 708.021V702.138C349.554 701.715 349.484 701.352 349.346 701.051C349.208 700.742 348.992 700.502 348.699 700.331C348.414 700.16 348.044 700.075 347.588 700.075C347.198 700.075 346.86 700.144 346.575 700.282C346.29 700.412 346.07 700.604 345.916 700.856C345.761 701.1 345.684 701.389 345.684 701.723H342.168C342.168 701.161 342.298 700.628 342.559 700.124C342.819 699.619 343.198 699.175 343.694 698.793C344.191 698.402 344.781 698.097 345.464 697.877C346.156 697.658 346.929 697.548 347.783 697.548C348.809 697.548 349.72 697.719 350.518 698.061C351.315 698.402 351.942 698.915 352.398 699.599C352.862 700.282 353.094 701.137 353.094 702.162V707.814C353.094 708.538 353.138 709.132 353.228 709.596C353.317 710.052 353.448 710.451 353.618 710.792V711H350.066C349.895 710.642 349.765 710.194 349.676 709.657C349.594 709.112 349.554 708.567 349.554 708.021ZM350.017 702.956L350.042 704.945H348.076C347.613 704.945 347.21 704.998 346.868 705.104C346.526 705.21 346.245 705.36 346.026 705.556C345.806 705.743 345.643 705.963 345.537 706.215C345.44 706.467 345.391 706.744 345.391 707.045C345.391 707.346 345.46 707.619 345.598 707.863C345.737 708.099 345.936 708.286 346.197 708.424C346.457 708.555 346.762 708.62 347.112 708.62C347.641 708.62 348.101 708.514 348.492 708.302C348.882 708.091 349.183 707.83 349.395 707.521C349.615 707.212 349.728 706.919 349.737 706.642L350.664 708.131C350.534 708.465 350.355 708.811 350.127 709.169C349.908 709.527 349.627 709.865 349.285 710.182C348.943 710.491 348.532 710.748 348.052 710.951C347.572 711.146 347.002 711.244 346.343 711.244C345.505 711.244 344.744 711.077 344.06 710.744C343.385 710.402 342.848 709.934 342.449 709.34C342.058 708.738 341.863 708.054 341.863 707.289C341.863 706.597 341.993 705.983 342.254 705.446C342.514 704.909 342.897 704.457 343.401 704.091C343.914 703.716 344.553 703.436 345.318 703.249C346.083 703.053 346.97 702.956 347.979 702.956H350.017ZM359.214 692.25V711H355.687V692.25H359.214ZM367.276 708.498C367.708 708.498 368.09 708.416 368.424 708.253C368.757 708.083 369.018 707.847 369.205 707.545C369.4 707.236 369.502 706.874 369.51 706.459H372.818C372.81 707.387 372.562 708.213 372.074 708.937C371.585 709.653 370.93 710.219 370.108 710.634C369.286 711.041 368.367 711.244 367.35 711.244C366.324 711.244 365.429 711.073 364.664 710.731C363.907 710.39 363.276 709.918 362.772 709.315C362.267 708.705 361.889 707.997 361.637 707.191C361.384 706.378 361.258 705.507 361.258 704.579V704.225C361.258 703.289 361.384 702.418 361.637 701.613C361.889 700.799 362.267 700.091 362.772 699.489C363.276 698.878 363.907 698.402 364.664 698.061C365.421 697.719 366.308 697.548 367.325 697.548C368.407 697.548 369.356 697.755 370.169 698.17C370.991 698.585 371.634 699.18 372.098 699.953C372.57 700.718 372.81 701.625 372.818 702.675H369.51C369.502 702.235 369.408 701.837 369.229 701.479C369.058 701.12 368.806 700.836 368.473 700.624C368.147 700.404 367.744 700.294 367.264 700.294C366.751 700.294 366.332 700.404 366.007 700.624C365.681 700.836 365.429 701.129 365.25 701.503C365.071 701.869 364.945 702.288 364.871 702.76C364.806 703.224 364.774 703.712 364.774 704.225V704.579C364.774 705.092 364.806 705.584 364.871 706.056C364.937 706.528 365.059 706.947 365.238 707.313C365.425 707.68 365.681 707.969 366.007 708.18C366.332 708.392 366.755 708.498 367.276 708.498ZM382.369 707.838V697.792H385.885V711H382.577L382.369 707.838ZM382.76 705.128L383.798 705.104C383.798 705.983 383.696 706.801 383.492 707.558C383.289 708.306 382.984 708.957 382.577 709.511C382.17 710.056 381.657 710.483 381.039 710.792C380.42 711.094 379.692 711.244 378.854 711.244C378.211 711.244 377.617 711.155 377.071 710.976C376.534 710.788 376.071 710.5 375.68 710.109C375.297 709.71 374.996 709.201 374.777 708.583C374.565 707.956 374.459 707.204 374.459 706.325V697.792H377.975V706.349C377.975 706.74 378.02 707.069 378.109 707.338C378.207 707.606 378.341 707.826 378.512 707.997C378.683 708.168 378.882 708.29 379.11 708.363C379.346 708.437 379.606 708.473 379.891 708.473C380.616 708.473 381.185 708.327 381.6 708.034C382.023 707.741 382.321 707.342 382.491 706.837C382.67 706.325 382.76 705.755 382.76 705.128ZM391.981 692.25V711H388.454V692.25H391.981ZM401.716 708.021V702.138C401.716 701.715 401.646 701.352 401.508 701.051C401.37 700.742 401.154 700.502 400.861 700.331C400.576 700.16 400.206 700.075 399.75 700.075C399.36 700.075 399.022 700.144 398.737 700.282C398.452 700.412 398.233 700.604 398.078 700.856C397.923 701.1 397.846 701.389 397.846 701.723H394.33C394.33 701.161 394.461 700.628 394.721 700.124C394.981 699.619 395.36 699.175 395.856 698.793C396.353 698.402 396.943 698.097 397.626 697.877C398.318 697.658 399.091 697.548 399.946 697.548C400.971 697.548 401.882 697.719 402.68 698.061C403.478 698.402 404.104 698.915 404.56 699.599C405.024 700.282 405.256 701.137 405.256 702.162V707.814C405.256 708.538 405.3 709.132 405.39 709.596C405.479 710.052 405.61 710.451 405.781 710.792V711H402.228C402.057 710.642 401.927 710.194 401.838 709.657C401.756 709.112 401.716 708.567 401.716 708.021ZM402.179 702.956L402.204 704.945H400.239C399.775 704.945 399.372 704.998 399.03 705.104C398.688 705.21 398.408 705.36 398.188 705.556C397.968 705.743 397.805 705.963 397.7 706.215C397.602 706.467 397.553 706.744 397.553 707.045C397.553 707.346 397.622 707.619 397.761 707.863C397.899 708.099 398.098 708.286 398.359 708.424C398.619 708.555 398.924 708.62 399.274 708.62C399.803 708.62 400.263 708.514 400.654 708.302C401.044 708.091 401.345 707.83 401.557 707.521C401.777 707.212 401.891 706.919 401.899 706.642L402.826 708.131C402.696 708.465 402.517 708.811 402.289 709.169C402.07 709.527 401.789 709.865 401.447 710.182C401.105 710.491 400.694 710.748 400.214 710.951C399.734 711.146 399.164 711.244 398.505 711.244C397.667 711.244 396.906 711.077 396.222 710.744C395.547 710.402 395.01 709.934 394.611 709.34C394.221 708.738 394.025 708.054 394.025 707.289C394.025 706.597 394.155 705.983 394.416 705.446C394.676 704.909 395.059 704.457 395.563 704.091C396.076 703.716 396.715 703.436 397.48 703.249C398.245 703.053 399.132 702.956 400.141 702.956H402.179ZM414.135 697.792V700.282H406.445V697.792H414.135ZM408.349 694.533H411.865V707.021C411.865 707.403 411.914 707.696 412.011 707.899C412.117 708.103 412.272 708.245 412.475 708.327C412.679 708.4 412.935 708.437 413.244 708.437C413.464 708.437 413.659 708.428 413.83 708.412C414.009 708.388 414.16 708.363 414.282 708.339L414.294 710.927C413.993 711.024 413.667 711.102 413.317 711.159C412.968 711.216 412.581 711.244 412.158 711.244C411.385 711.244 410.709 711.118 410.131 710.866C409.562 710.605 409.122 710.19 408.813 709.621C408.504 709.051 408.349 708.302 408.349 707.375V694.533ZM421.916 711.244C420.891 711.244 419.971 711.081 419.158 710.756C418.344 710.422 417.652 709.962 417.082 709.376C416.521 708.791 416.09 708.111 415.788 707.338C415.487 706.557 415.337 705.727 415.337 704.848V704.359C415.337 703.358 415.479 702.443 415.764 701.613C416.049 700.783 416.456 700.062 416.985 699.452C417.522 698.842 418.173 698.374 418.938 698.048C419.703 697.715 420.565 697.548 421.526 697.548C422.462 697.548 423.292 697.702 424.016 698.012C424.74 698.321 425.347 698.76 425.835 699.33C426.331 699.9 426.706 700.583 426.958 701.381C427.21 702.17 427.336 703.049 427.336 704.018V705.482H416.838V703.139H423.882V702.87C423.882 702.382 423.792 701.946 423.613 701.564C423.442 701.173 423.182 700.864 422.832 700.636C422.482 700.408 422.034 700.294 421.489 700.294C421.025 700.294 420.627 700.396 420.293 700.6C419.959 700.803 419.687 701.088 419.475 701.454C419.272 701.82 419.117 702.252 419.011 702.748C418.913 703.236 418.865 703.773 418.865 704.359V704.848C418.865 705.377 418.938 705.865 419.084 706.312C419.239 706.76 419.455 707.147 419.731 707.472C420.016 707.798 420.358 708.05 420.757 708.229C421.164 708.408 421.623 708.498 422.136 708.498C422.771 708.498 423.361 708.375 423.906 708.131C424.46 707.879 424.936 707.501 425.334 706.996L427.043 708.852C426.767 709.25 426.388 709.633 425.908 709.999C425.436 710.365 424.866 710.666 424.199 710.902C423.532 711.13 422.771 711.244 421.916 711.244Z" fill="white"/>
<path d="M485.5 182L492.861 174.5H478.139L485.5 182Z" fill="#969595"/>
<path d="M485.5 263L492.861 255.5H478.139L485.5 263Z" fill="#969595"/>
<path d="M230.684 181.467V183H223.154V181.467H230.684ZM223.535 168.781V183H221.65V168.781H223.535ZM229.688 174.895V176.428H223.154V174.895H229.688ZM230.586 168.781V170.324H223.154V168.781H230.586ZM240.852 168.781H242.727V178.4C242.727 179.468 242.49 180.357 242.014 181.066C241.539 181.776 240.908 182.31 240.12 182.668C239.339 183.02 238.489 183.195 237.571 183.195C236.608 183.195 235.735 183.02 234.954 182.668C234.179 182.31 233.564 181.776 233.108 181.066C232.659 180.357 232.434 179.468 232.434 178.4V168.781H234.3V178.4C234.3 179.143 234.436 179.755 234.71 180.236C234.983 180.718 235.364 181.076 235.852 181.311C236.347 181.545 236.92 181.662 237.571 181.662C238.229 181.662 238.802 181.545 239.29 181.311C239.785 181.076 240.169 180.718 240.442 180.236C240.716 179.755 240.852 179.143 240.852 178.4V168.781ZM245.386 168.781H250.093C251.161 168.781 252.063 168.944 252.798 169.27C253.541 169.595 254.104 170.077 254.488 170.715C254.879 171.346 255.074 172.124 255.074 173.049C255.074 173.7 254.94 174.296 254.673 174.836C254.413 175.37 254.035 175.826 253.541 176.203C253.052 176.574 252.466 176.851 251.783 177.033L251.255 177.238H246.832L246.812 175.705H250.152C250.829 175.705 251.392 175.588 251.841 175.354C252.291 175.113 252.629 174.79 252.857 174.387C253.085 173.983 253.199 173.537 253.199 173.049C253.199 172.502 253.091 172.023 252.877 171.613C252.662 171.203 252.323 170.887 251.861 170.666C251.405 170.438 250.816 170.324 250.093 170.324H247.271V183H245.386V168.781ZM253.697 183L250.24 176.555L252.203 176.545L255.709 182.883V183H253.697ZM265.545 168.781H267.42V178.4C267.42 179.468 267.183 180.357 266.707 181.066C266.232 181.776 265.601 182.31 264.813 182.668C264.032 183.02 263.182 183.195 262.264 183.195C261.301 183.195 260.428 183.02 259.647 182.668C258.872 182.31 258.257 181.776 257.801 181.066C257.352 180.357 257.127 179.468 257.127 178.4V168.781H258.993V178.4C258.993 179.143 259.129 179.755 259.403 180.236C259.676 180.718 260.057 181.076 260.545 181.311C261.04 181.545 261.613 181.662 262.264 181.662C262.922 181.662 263.495 181.545 263.983 181.311C264.478 181.076 264.862 180.718 265.135 180.236C265.409 179.755 265.545 179.143 265.545 178.4V168.781ZM277.657 179.406C277.657 179.074 277.605 178.781 277.501 178.527C277.404 178.267 277.228 178.033 276.974 177.824C276.726 177.616 276.381 177.417 275.939 177.229C275.502 177.04 274.949 176.848 274.279 176.652C273.575 176.444 272.941 176.213 272.374 175.959C271.808 175.699 271.323 175.402 270.919 175.07C270.515 174.738 270.206 174.357 269.991 173.928C269.777 173.498 269.669 173.007 269.669 172.453C269.669 171.9 269.783 171.389 270.011 170.92C270.239 170.451 270.564 170.044 270.987 169.699C271.417 169.348 271.928 169.074 272.521 168.879C273.113 168.684 273.774 168.586 274.503 168.586C275.571 168.586 276.476 168.791 277.218 169.201C277.967 169.605 278.536 170.135 278.927 170.793C279.318 171.444 279.513 172.141 279.513 172.883H277.638C277.638 172.349 277.524 171.877 277.296 171.467C277.068 171.05 276.723 170.725 276.261 170.49C275.799 170.249 275.213 170.129 274.503 170.129C273.833 170.129 273.279 170.23 272.843 170.432C272.407 170.633 272.081 170.907 271.866 171.252C271.658 171.597 271.554 171.991 271.554 172.434C271.554 172.733 271.616 173.007 271.739 173.254C271.87 173.495 272.068 173.719 272.335 173.928C272.609 174.136 272.954 174.328 273.37 174.504C273.793 174.68 274.298 174.849 274.884 175.012C275.691 175.24 276.388 175.493 276.974 175.773C277.56 176.053 278.042 176.369 278.419 176.721C278.803 177.066 279.086 177.46 279.269 177.902C279.458 178.339 279.552 178.833 279.552 179.387C279.552 179.966 279.435 180.49 279.2 180.959C278.966 181.428 278.631 181.828 278.195 182.16C277.758 182.492 277.234 182.749 276.622 182.932C276.017 183.107 275.34 183.195 274.591 183.195C273.933 183.195 273.286 183.104 272.648 182.922C272.016 182.74 271.44 182.466 270.919 182.102C270.405 181.737 269.991 181.288 269.679 180.754C269.373 180.214 269.22 179.589 269.22 178.879H271.095C271.095 179.367 271.189 179.787 271.378 180.139C271.567 180.484 271.824 180.77 272.15 180.998C272.482 181.226 272.856 181.395 273.273 181.506C273.696 181.61 274.135 181.662 274.591 181.662C275.249 181.662 275.805 181.571 276.261 181.389C276.717 181.206 277.062 180.946 277.296 180.607C277.537 180.269 277.657 179.868 277.657 179.406ZM285.502 183H282.533L282.553 181.467H285.502C286.518 181.467 287.364 181.255 288.041 180.832C288.718 180.402 289.226 179.803 289.564 179.035C289.91 178.26 290.082 177.355 290.082 176.32V175.451C290.082 174.637 289.984 173.915 289.789 173.283C289.594 172.645 289.307 172.108 288.93 171.672C288.552 171.229 288.09 170.894 287.543 170.666C287.003 170.438 286.381 170.324 285.678 170.324H282.475V168.781H285.678C286.609 168.781 287.458 168.938 288.227 169.25C288.995 169.556 289.656 170.002 290.209 170.588C290.769 171.167 291.199 171.87 291.498 172.697C291.798 173.518 291.947 174.442 291.947 175.471V176.32C291.947 177.349 291.798 178.277 291.498 179.104C291.199 179.924 290.766 180.624 290.199 181.203C289.639 181.783 288.962 182.229 288.168 182.541C287.38 182.847 286.492 183 285.502 183ZM283.539 168.781V183H281.654V168.781H283.539Z" fill="#989797"/>
<path d="M229.785 251.781H231.66V261.4C231.66 262.468 231.423 263.357 230.947 264.066C230.472 264.776 229.84 265.31 229.053 265.668C228.271 266.02 227.422 266.195 226.504 266.195C225.54 266.195 224.668 266.02 223.887 265.668C223.112 265.31 222.497 264.776 222.041 264.066C221.592 263.357 221.367 262.468 221.367 261.4V251.781H223.232V261.4C223.232 262.143 223.369 262.755 223.643 263.236C223.916 263.718 224.297 264.076 224.785 264.311C225.28 264.545 225.853 264.662 226.504 264.662C227.161 264.662 227.734 264.545 228.223 264.311C228.717 264.076 229.102 263.718 229.375 263.236C229.648 262.755 229.785 262.143 229.785 261.4V251.781ZM241.897 262.406C241.897 262.074 241.845 261.781 241.741 261.527C241.643 261.267 241.468 261.033 241.214 260.824C240.966 260.616 240.621 260.417 240.179 260.229C239.742 260.04 239.189 259.848 238.518 259.652C237.815 259.444 237.18 259.213 236.614 258.959C236.048 258.699 235.563 258.402 235.159 258.07C234.755 257.738 234.446 257.357 234.231 256.928C234.016 256.498 233.909 256.007 233.909 255.453C233.909 254.9 234.023 254.389 234.251 253.92C234.479 253.451 234.804 253.044 235.227 252.699C235.657 252.348 236.168 252.074 236.761 251.879C237.353 251.684 238.014 251.586 238.743 251.586C239.811 251.586 240.716 251.791 241.458 252.201C242.207 252.605 242.776 253.135 243.167 253.793C243.557 254.444 243.753 255.141 243.753 255.883H241.878C241.878 255.349 241.764 254.877 241.536 254.467C241.308 254.05 240.963 253.725 240.501 253.49C240.039 253.249 239.453 253.129 238.743 253.129C238.072 253.129 237.519 253.23 237.083 253.432C236.647 253.633 236.321 253.907 236.106 254.252C235.898 254.597 235.794 254.991 235.794 255.434C235.794 255.733 235.856 256.007 235.979 256.254C236.11 256.495 236.308 256.719 236.575 256.928C236.848 257.136 237.193 257.328 237.61 257.504C238.033 257.68 238.538 257.849 239.124 258.012C239.931 258.24 240.628 258.493 241.214 258.773C241.8 259.053 242.281 259.369 242.659 259.721C243.043 260.066 243.326 260.46 243.509 260.902C243.697 261.339 243.792 261.833 243.792 262.387C243.792 262.966 243.675 263.49 243.44 263.959C243.206 264.428 242.871 264.828 242.434 265.16C241.998 265.492 241.474 265.749 240.862 265.932C240.257 266.107 239.58 266.195 238.831 266.195C238.173 266.195 237.526 266.104 236.887 265.922C236.256 265.74 235.68 265.466 235.159 265.102C234.645 264.737 234.231 264.288 233.919 263.754C233.613 263.214 233.46 262.589 233.46 261.879H235.335C235.335 262.367 235.429 262.787 235.618 263.139C235.807 263.484 236.064 263.77 236.389 263.998C236.721 264.226 237.096 264.395 237.512 264.506C237.936 264.61 238.375 264.662 238.831 264.662C239.488 264.662 240.045 264.571 240.501 264.389C240.957 264.206 241.302 263.946 241.536 263.607C241.777 263.269 241.897 262.868 241.897 262.406ZM249.742 266H246.773L246.793 264.467H249.742C250.757 264.467 251.604 264.255 252.281 263.832C252.958 263.402 253.466 262.803 253.804 262.035C254.149 261.26 254.322 260.355 254.322 259.32V258.451C254.322 257.637 254.224 256.915 254.029 256.283C253.834 255.645 253.547 255.108 253.17 254.672C252.792 254.229 252.33 253.894 251.783 253.666C251.242 253.438 250.621 253.324 249.918 253.324H246.714V251.781H249.918C250.849 251.781 251.698 251.938 252.466 252.25C253.235 252.556 253.895 253.002 254.449 253.588C255.009 254.167 255.438 254.87 255.738 255.697C256.037 256.518 256.187 257.442 256.187 258.471V259.32C256.187 260.349 256.037 261.277 255.738 262.104C255.438 262.924 255.005 263.624 254.439 264.203C253.879 264.783 253.202 265.229 252.408 265.541C251.62 265.847 250.731 266 249.742 266ZM247.779 251.781V266H245.894V251.781H247.779Z" fill="#989797"/>
<path d="M227.119 565.703V580H225.312V567.959L221.67 569.287V567.656L226.836 565.703H227.119Z" fill="#989797"/>
</svg>
