<svg width="37" height="37" viewBox="0 0 37 37" fill="none" xmlns="http://www.w3.org/2000/svg">
<path d="M28.0535 0.101166C26.9117 0.325188 25.9145 0.708197 25.0473 1.27909C24.686 1.51757 23.6381 2.50761 21.4412 4.69003C18.5795 7.54453 18.341 7.79746 18.2399 8.12988C18.0231 8.86699 18.3338 9.58965 19.0131 9.9293C19.2371 10.0377 19.5117 10.1172 19.6852 10.1172C20.3139 10.11 20.4801 9.97266 23.5948 6.87246C26.4926 3.98183 26.5721 3.91679 27.1719 3.6205C28.0608 3.19414 28.5666 3.08574 29.4844 3.1291C29.9686 3.15078 30.4166 3.21581 30.7129 3.31699C32.086 3.75781 33.2567 4.93574 33.6975 6.32324C33.8276 6.73515 33.8565 6.99531 33.8565 7.73242C33.8565 8.73691 33.7842 9.04765 33.3289 9.93652C33.0977 10.399 32.6496 10.8688 27.7572 15.7684L22.4385 21.0871L21.752 21.4123C20.9426 21.8025 20.5235 21.8965 19.6707 21.8965C18.5723 21.8965 17.5823 21.5279 16.6862 20.7908C16.426 20.574 16.1369 20.3572 16.043 20.3066C15.3059 19.9092 14.3664 20.2199 13.9834 20.9787C13.7883 21.3762 13.7594 21.6941 13.8823 22.1494C14.034 22.7203 15.4215 23.8332 16.6139 24.3535C19.1215 25.4447 22.1061 25.1051 24.274 23.4863C24.9895 22.9588 35.3235 12.5598 35.6703 12.0322C36.3063 11.0422 36.6893 10.0666 36.8916 8.91035C37.3613 6.20039 36.1906 3.27363 33.9432 1.58261C33.1772 1.00449 32.0932 0.484173 31.1826 0.245697C30.2793 0.0144463 28.8557 -0.0505924 28.0535 0.101166Z" fill="white"/>
<path d="M15.1903 12.9645C13.9111 13.2102 12.7838 13.6943 11.8588 14.3881C11.0856 14.9662 1.69826 24.4041 1.3297 24.9678C0.224036 26.6805 -0.202332 28.5738 0.108411 30.4672C0.252942 31.385 0.462512 32.0137 0.881653 32.823C2.21857 35.3885 4.86349 37 7.73966 37C9.2717 37 11.0422 36.4074 12.2779 35.4824C12.5381 35.2873 13.8967 33.9793 15.2914 32.5773C17.8063 30.0553 17.8352 30.0191 17.9147 29.6361C18.0086 29.1809 17.9291 28.7906 17.6545 28.3859C17.4305 28.0535 16.8524 27.75 16.4477 27.75C15.8334 27.7572 15.6311 27.9162 12.9717 30.5611C10.2762 33.2422 10.1389 33.3434 9.03322 33.7191C8.43341 33.9215 7.00255 33.9143 6.32326 33.6975C4.93576 33.2566 3.75783 32.0859 3.31701 30.7129C3.21583 30.4166 3.15079 29.9686 3.12911 29.4844C3.08576 28.5666 3.18693 28.068 3.62052 27.1719L3.91681 26.5576L8.8092 21.6725L13.6944 16.7801L14.3086 16.4838C15.1035 16.1008 15.6383 15.9707 16.4115 15.9707C17.5606 15.9707 18.5362 16.3248 19.4467 17.0836C20.061 17.5967 20.3356 17.7268 20.7764 17.7268C21.4196 17.7268 21.9254 17.3943 22.1928 16.8018C22.3518 16.4693 22.3662 16.1369 22.2434 15.7467C21.9832 14.865 20.0248 13.5498 18.3194 13.109C17.4233 12.8777 15.9996 12.8127 15.1903 12.9645Z" fill="white"/>
</svg>
