<svg width="35" height="35" viewBox="0 0 35 35" fill="none" xmlns="http://www.w3.org/2000/svg">
<path d="M1.65936 0.604301C1.50761 0.640434 1.24022 0.806644 1.05956 0.96563C0.474208 1.48594 0.510341 0.409185 0.53202 14.5732L0.5537 27.1475L0.712684 27.4438C0.907802 27.8123 1.233 28.0941 1.5871 28.1953C1.77499 28.2531 5.69179 28.2676 14.5805 28.2531L27.3064 28.2315L27.5883 28.0363C27.74 27.9279 27.9496 27.7184 28.0508 27.5666L28.2314 27.2992L28.2531 14.5805C28.2676 5.6918 28.2531 1.775 28.1953 1.58711C28.0941 1.23301 27.8123 0.907816 27.4437 0.7127L27.1474 0.553715L14.5371 0.539263C6.38554 0.532036 1.8328 0.553715 1.65936 0.604301ZM25.218 14.407L25.1963 25.1963L14.4142 25.218L3.62499 25.2324V14.4287V3.625H14.4287H25.2324L25.218 14.407Z" fill="white"/>
<path d="M12.875 10.2373V12.875H10.2373H7.59961V14.4287V15.9824H10.2373H12.875V18.6201V21.2578H14.4287H15.9824V18.6201V15.9824H18.6201H21.2578V14.4287V12.875H18.6201H15.9824V10.2373V7.59961H14.4287H12.875V10.2373Z" fill="white"/>
<path d="M29.8574 8.25V9.76758H30.6162H31.375V20.5713V31.375H20.5713H9.76758V30.6162V29.8574H8.25H6.73242V31.5557C6.73242 32.9287 6.7541 33.3117 6.84082 33.5285C6.98535 33.8682 7.20215 34.0922 7.56348 34.2873L7.85254 34.4463L20.4268 34.468C34.598 34.4896 33.5141 34.5258 34.0416 33.9332C34.2439 33.702 34.3523 33.4924 34.4102 33.2322C34.468 32.9648 34.4824 29.3227 34.468 20.3545L34.4463 7.85254L34.2873 7.56348C34.0922 7.20215 33.8682 6.98536 33.5285 6.84082C33.3117 6.7541 32.9287 6.73243 31.5557 6.73243H29.8574V8.25Z" fill="white"/>
</svg>
