<svg width="35" height="35" viewBox="0 0 35 35" fill="none" xmlns="http://www.w3.org/2000/svg">
<path d="M15.9418 0.452538C11.9021 1.00898 8.6791 4.09472 7.99258 8.06933C7.84804 8.90039 7.84804 10.4107 7.98535 11.2346C8.34668 13.2941 9.48125 15.3031 11.0205 16.6328C11.2228 16.799 11.3891 16.9652 11.3963 16.9869C11.4107 17.0086 11.1361 17.1387 10.782 17.276C10.4352 17.4061 9.78476 17.7096 9.33672 17.9408C3.99629 20.7158 0.578124 25.8395 0.0650379 31.8375C-0.0722667 33.4996 0.0433583 33.9766 0.672069 34.3957L0.968358 34.5908H17.1269H33.2855L33.5818 34.3957C34.2105 33.9766 34.3262 33.4996 34.1889 31.8375C33.8275 27.6678 32.1293 23.9895 29.2242 21.0844C27.6055 19.4584 25.4519 18.042 23.4719 17.276C23.1178 17.1387 22.8432 17.0086 22.8576 16.9869C22.8648 16.9652 23.0383 16.799 23.2334 16.6328C24.7727 15.3031 25.9072 13.2941 26.2685 11.2346C26.4059 10.4107 26.4059 8.90039 26.2613 8.06933C25.9795 6.4289 25.1918 4.78125 24.0861 3.54551C22.6914 1.97734 20.957 0.980076 18.8975 0.553707C18.2037 0.409176 16.6283 0.351364 15.9418 0.452538ZM18.6084 3.44433C20.6102 3.9791 22.0988 5.21484 22.9443 7.04316C23.3707 7.96094 23.4502 8.37285 23.4502 9.65918C23.4502 10.9455 23.3707 11.3574 22.9443 12.2752C22.0916 14.118 20.574 15.3754 18.5723 15.8812C17.8207 16.0691 16.4332 16.0691 15.6816 15.8812C13.6799 15.3754 12.1623 14.118 11.3096 12.2752C10.8832 11.3574 10.8037 10.9455 10.8037 9.65918C10.8037 8.37285 10.8832 7.96094 11.3096 7.04316C11.8227 5.92304 12.5887 5.01972 13.5643 4.36933C14.3953 3.82011 15.1686 3.52383 16.332 3.30703C16.6861 3.24199 18.182 3.32871 18.6084 3.44433ZM19.2588 19.1187C21.9832 19.5451 24.433 20.7014 26.5865 22.573C28.198 23.9678 29.7301 26.2152 30.4889 28.3037C30.749 29.0047 31.1031 30.3922 31.1754 30.9775C31.2043 31.1727 31.2404 31.4256 31.2621 31.5412L31.3055 31.7363H17.1269H2.94844L2.9918 31.5412C3.01348 31.4256 3.04961 31.1727 3.07851 30.9775C3.15078 30.3922 3.50488 29.0047 3.76504 28.3037C3.89512 27.9424 4.19863 27.2631 4.43711 26.7861C5.83906 24.0184 7.97812 21.8865 10.7531 20.4918C12.4947 19.6102 13.9689 19.1982 16.1514 18.9887C16.6789 18.9381 18.6012 19.0176 19.2588 19.1187Z" fill="white"/>
</svg>
